# xmcd
#
# Track frame offsets:
#	150
#	17714
#	32963
#	47833
#	66505
#	96168
#	115910
#	141073
#	159207
#	183041
#	202816
#
# Disc length: 2962 seconds
#
# Revision: 0
# Processed by: cddbd v1.5.2PL0 Copyright (c) Steve Scherf et al.
# Submitted via: EZCDAudioConverter 6.0.9.1
#
DISCID=8e0b900b
DTITLE=Eamonn McCormack - Like There's No Tomorrow CD 1
DYEAR=2017
DGENRE=Blues
TTITLE0=From Town To Town
TTITLE1=Crossing The Line
TTITLE2=Writings On The Wall
TTITLE3=Still Missing You
TTITLE4=Still Missing You
TTITLE5=Lousy Day
TTITLE6=Internet Star
TTITLE7=Moving On
TTITLE8=Running Back To You
TTITLE9=Fool For Loving You
TTITLE10=It's A Saturday Night
EXTD=
EXTT0=
EXTT1=
EXTT2=
EXTT3=
EXTT4=
EXTT5=
EXTT6=
EXTT7=
EXTT8=
EXTT9=
EXTT10=
PLAYORDER=
